<svg xmlns="http://www.w3.org/2000/svg" viewBox="0 0 1000 1000" width="1000" height="1000">
  <!--
board_modern_52.svg (v7)
- Track numbering adjusted by -1 (off-by-one fix) so starts align at corner positions.
- Start highlights updated to indices: red=0, blue=13, yellow=26, green=39.
- Lane positions: top=blue, right=yellow, bottom=green, left=red.
IDs preserved: track-0..51, home-*, lane-*
-->
  <rect x="0" y="0" width="1000" height="1000" rx="40" fill="#f8fafc"/>
  <rect x="30" y="30" width="940" height="940" rx="44" fill="#ffffff" stroke="#e5e7eb" stroke-width="2" opacity="1"/>
  <rect x="50" y="50" width="450.0" height="450.0" rx="28" fill="#ef4444" opacity="0.10"/><rect x="500.0" y="50" width="450.0" height="450.0" rx="28" fill="#3b82f6" opacity="0.10"/><rect x="50" y="500.0" width="450.0" height="450.0" rx="28" fill="#22c55e" opacity="0.10"/><rect x="500.0" y="500.0" width="450.0" height="450.0" rx="28" fill="#f59e0b" opacity="0.10"/>
  <g><circle cx="80.0" cy="440.0" r="16.8" fill="#f3f4f6" stroke="#111827" stroke-width="3" opacity="1"/><circle cx="140.0" cy="440.0" r="16.8" fill="#ffffff" stroke="#cbd5e1" stroke-width="2" opacity="1"/><circle cx="200.0" cy="440.0" r="16.8" fill="#ffffff" stroke="#cbd5e1" stroke-width="2" opacity="1"/><circle cx="260.0" cy="440.0" r="16.8" fill="#ffffff" stroke="#cbd5e1" stroke-width="2" opacity="1"/><circle cx="320.0" cy="440.0" r="16.8" fill="#ffffff" stroke="#cbd5e1" stroke-width="2" opacity="1"/><circle cx="380.0" cy="440.0" r="16.8" fill="#ffffff" stroke="#cbd5e1" stroke-width="2" opacity="1"/><circle cx="440.0" cy="380.0" r="16.8" fill="#ffffff" stroke="#cbd5e1" stroke-width="2" opacity="1"/><circle cx="440.0" cy="320.0" r="16.8" fill="#ffffff" stroke="#cbd5e1" stroke-width="2" opacity="1"/><circle cx="440.0" cy="260.0" r="16.8" fill="#ffffff" stroke="#cbd5e1" stroke-width="2" opacity="1"/><circle cx="440.0" cy="200.0" r="16.8" fill="#ffffff" stroke="#cbd5e1" stroke-width="2" opacity="1"/><circle cx="440.0" cy="140.0" r="16.8" fill="#ffffff" stroke="#cbd5e1" stroke-width="2" opacity="1"/><circle cx="440.0" cy="80.0" r="16.8" fill="#ffffff" stroke="#cbd5e1" stroke-width="2" opacity="1"/><circle cx="500.0" cy="80.0" r="16.8" fill="#ffffff" stroke="#cbd5e1" stroke-width="2" opacity="1"/><circle cx="560.0" cy="80.0" r="16.8" fill="#f3f4f6" stroke="#111827" stroke-width="3" opacity="1"/><circle cx="560.0" cy="140.0" r="16.8" fill="#ffffff" stroke="#cbd5e1" stroke-width="2" opacity="1"/><circle cx="560.0" cy="200.0" r="16.8" fill="#ffffff" stroke="#cbd5e1" stroke-width="2" opacity="1"/><circle cx="560.0" cy="260.0" r="16.8" fill="#ffffff" stroke="#cbd5e1" stroke-width="2" opacity="1"/><circle cx="560.0" cy="320.0" r="16.8" fill="#ffffff" stroke="#cbd5e1" stroke-width="2" opacity="1"/><circle cx="560.0" cy="380.0" r="16.8" fill="#ffffff" stroke="#cbd5e1" stroke-width="2" opacity="1"/><circle cx="620.0" cy="440.0" r="16.8" fill="#ffffff" stroke="#cbd5e1" stroke-width="2" opacity="1"/><circle cx="680.0" cy="440.0" r="16.8" fill="#ffffff" stroke="#cbd5e1" stroke-width="2" opacity="1"/><circle cx="740.0" cy="440.0" r="16.8" fill="#ffffff" stroke="#cbd5e1" stroke-width="2" opacity="1"/><circle cx="800.0" cy="440.0" r="16.8" fill="#ffffff" stroke="#cbd5e1" stroke-width="2" opacity="1"/><circle cx="860.0" cy="440.0" r="16.8" fill="#ffffff" stroke="#cbd5e1" stroke-width="2" opacity="1"/><circle cx="920.0" cy="440.0" r="16.8" fill="#ffffff" stroke="#cbd5e1" stroke-width="2" opacity="1"/><circle cx="920.0" cy="500.0" r="16.8" fill="#ffffff" stroke="#cbd5e1" stroke-width="2" opacity="1"/><circle cx="920.0" cy="560.0" r="16.8" fill="#f3f4f6" stroke="#111827" stroke-width="3" opacity="1"/><circle cx="860.0" cy="560.0" r="16.8" fill="#ffffff" stroke="#cbd5e1" stroke-width="2" opacity="1"/><circle cx="800.0" cy="560.0" r="16.8" fill="#ffffff" stroke="#cbd5e1" stroke-width="2" opacity="1"/><circle cx="740.0" cy="560.0" r="16.8" fill="#ffffff" stroke="#cbd5e1" stroke-width="2" opacity="1"/><circle cx="680.0" cy="560.0" r="16.8" fill="#ffffff" stroke="#cbd5e1" stroke-width="2" opacity="1"/><circle cx="620.0" cy="560.0" r="16.8" fill="#ffffff" stroke="#cbd5e1" stroke-width="2" opacity="1"/><circle cx="560.0" cy="620.0" r="16.8" fill="#ffffff" stroke="#cbd5e1" stroke-width="2" opacity="1"/><circle cx="560.0" cy="680.0" r="16.8" fill="#ffffff" stroke="#cbd5e1" stroke-width="2" opacity="1"/><circle cx="560.0" cy="740.0" r="16.8" fill="#ffffff" stroke="#cbd5e1" stroke-width="2" opacity="1"/><circle cx="560.0" cy="800.0" r="16.8" fill="#ffffff" stroke="#cbd5e1" stroke-width="2" opacity="1"/><circle cx="560.0" cy="860.0" r="16.8" fill="#ffffff" stroke="#cbd5e1" stroke-width="2" opacity="1"/><circle cx="560.0" cy="920.0" r="16.8" fill="#ffffff" stroke="#cbd5e1" stroke-width="2" opacity="1"/><circle cx="500.0" cy="920.0" r="16.8" fill="#ffffff" stroke="#cbd5e1" stroke-width="2" opacity="1"/><circle cx="440.0" cy="920.0" r="16.8" fill="#f3f4f6" stroke="#111827" stroke-width="3" opacity="1"/><circle cx="440.0" cy="860.0" r="16.8" fill="#ffffff" stroke="#cbd5e1" stroke-width="2" opacity="1"/><circle cx="440.0" cy="800.0" r="16.8" fill="#ffffff" stroke="#cbd5e1" stroke-width="2" opacity="1"/><circle cx="440.0" cy="740.0" r="16.8" fill="#ffffff" stroke="#cbd5e1" stroke-width="2" opacity="1"/><circle cx="440.0" cy="680.0" r="16.8" fill="#ffffff" stroke="#cbd5e1" stroke-width="2" opacity="1"/><circle cx="440.0" cy="620.0" r="16.8" fill="#ffffff" stroke="#cbd5e1" stroke-width="2" opacity="1"/><circle cx="380.0" cy="560.0" r="16.8" fill="#ffffff" stroke="#cbd5e1" stroke-width="2" opacity="1"/><circle cx="320.0" cy="560.0" r="16.8" fill="#ffffff" stroke="#cbd5e1" stroke-width="2" opacity="1"/><circle cx="260.0" cy="560.0" r="16.8" fill="#ffffff" stroke="#cbd5e1" stroke-width="2" opacity="1"/><circle cx="200.0" cy="560.0" r="16.8" fill="#ffffff" stroke="#cbd5e1" stroke-width="2" opacity="1"/><circle cx="140.0" cy="560.0" r="16.8" fill="#ffffff" stroke="#cbd5e1" stroke-width="2" opacity="1"/><circle cx="80.0" cy="560.0" r="16.8" fill="#ffffff" stroke="#cbd5e1" stroke-width="2" opacity="1"/><circle cx="80.0" cy="500.0" r="16.8" fill="#ffffff" stroke="#cbd5e1" stroke-width="2" opacity="1"/></g>
  <g><rect x="176.0" y="176.0" width="108.0" height="108.0" rx="22" fill="#ef4444" opacity="0.10"/><rect x="179.6" y="179.6" width="40.800000000000004" height="40.800000000000004" rx="16" fill="#ffffff" stroke="#111827" stroke-width="2" opacity="1"/><rect x="239.6" y="179.6" width="40.800000000000004" height="40.800000000000004" rx="16" fill="#ffffff" stroke="#111827" stroke-width="2" opacity="1"/><rect x="179.6" y="239.6" width="40.800000000000004" height="40.800000000000004" rx="16" fill="#ffffff" stroke="#111827" stroke-width="2" opacity="1"/><rect x="239.6" y="239.6" width="40.800000000000004" height="40.800000000000004" rx="16" fill="#ffffff" stroke="#111827" stroke-width="2" opacity="1"/><rect x="716.0" y="176.0" width="108.0" height="108.0" rx="22" fill="#3b82f6" opacity="0.10"/><rect x="719.6" y="179.6" width="40.800000000000004" height="40.800000000000004" rx="16" fill="#ffffff" stroke="#111827" stroke-width="2" opacity="1"/><rect x="779.6" y="179.6" width="40.800000000000004" height="40.800000000000004" rx="16" fill="#ffffff" stroke="#111827" stroke-width="2" opacity="1"/><rect x="719.6" y="239.6" width="40.800000000000004" height="40.800000000000004" rx="16" fill="#ffffff" stroke="#111827" stroke-width="2" opacity="1"/><rect x="779.6" y="239.6" width="40.800000000000004" height="40.800000000000004" rx="16" fill="#ffffff" stroke="#111827" stroke-width="2" opacity="1"/><rect x="176.0" y="716.0" width="108.0" height="108.0" rx="22" fill="#22c55e" opacity="0.10"/><rect x="179.6" y="719.6" width="40.800000000000004" height="40.800000000000004" rx="16" fill="#ffffff" stroke="#111827" stroke-width="2" opacity="1"/><rect x="239.6" y="719.6" width="40.800000000000004" height="40.800000000000004" rx="16" fill="#ffffff" stroke="#111827" stroke-width="2" opacity="1"/><rect x="179.6" y="779.6" width="40.800000000000004" height="40.800000000000004" rx="16" fill="#ffffff" stroke="#111827" stroke-width="2" opacity="1"/><rect x="239.6" y="779.6" width="40.800000000000004" height="40.800000000000004" rx="16" fill="#ffffff" stroke="#111827" stroke-width="2" opacity="1"/><rect x="716.0" y="716.0" width="108.0" height="108.0" rx="22" fill="#f59e0b" opacity="0.10"/><rect x="719.6" y="719.6" width="40.800000000000004" height="40.800000000000004" rx="16" fill="#ffffff" stroke="#111827" stroke-width="2" opacity="1"/><rect x="779.6" y="719.6" width="40.800000000000004" height="40.800000000000004" rx="16" fill="#ffffff" stroke="#111827" stroke-width="2" opacity="1"/><rect x="719.6" y="779.6" width="40.800000000000004" height="40.800000000000004" rx="16" fill="#ffffff" stroke="#111827" stroke-width="2" opacity="1"/><rect x="779.6" y="779.6" width="40.800000000000004" height="40.800000000000004" rx="16" fill="#ffffff" stroke="#111827" stroke-width="2" opacity="1"/></g>
  <g><rect x="479.6" y="119.6" width="40.800000000000004" height="40.800000000000004" rx="16" fill="#3b82f6" stroke="#ffffff" stroke-width="2" opacity="0.25"/><rect x="479.6" y="179.6" width="40.800000000000004" height="40.800000000000004" rx="16" fill="#3b82f6" stroke="#ffffff" stroke-width="2" opacity="0.25"/><rect x="479.6" y="239.6" width="40.800000000000004" height="40.800000000000004" rx="16" fill="#3b82f6" stroke="#ffffff" stroke-width="2" opacity="0.25"/><rect x="479.6" y="299.6" width="40.800000000000004" height="40.800000000000004" rx="16" fill="#3b82f6" stroke="#ffffff" stroke-width="2" opacity="0.25"/><rect x="839.6" y="479.6" width="40.800000000000004" height="40.800000000000004" rx="16" fill="#f59e0b" stroke="#ffffff" stroke-width="2" opacity="0.25"/><rect x="779.6" y="479.6" width="40.800000000000004" height="40.800000000000004" rx="16" fill="#f59e0b" stroke="#ffffff" stroke-width="2" opacity="0.25"/><rect x="719.6" y="479.6" width="40.800000000000004" height="40.800000000000004" rx="16" fill="#f59e0b" stroke="#ffffff" stroke-width="2" opacity="0.25"/><rect x="659.6" y="479.6" width="40.800000000000004" height="40.800000000000004" rx="16" fill="#f59e0b" stroke="#ffffff" stroke-width="2" opacity="0.25"/><rect x="479.6" y="839.6" width="40.800000000000004" height="40.800000000000004" rx="16" fill="#22c55e" stroke="#ffffff" stroke-width="2" opacity="0.25"/><rect x="479.6" y="779.6" width="40.800000000000004" height="40.800000000000004" rx="16" fill="#22c55e" stroke="#ffffff" stroke-width="2" opacity="0.25"/><rect x="479.6" y="719.6" width="40.800000000000004" height="40.800000000000004" rx="16" fill="#22c55e" stroke="#ffffff" stroke-width="2" opacity="0.25"/><rect x="479.6" y="659.6" width="40.800000000000004" height="40.800000000000004" rx="16" fill="#22c55e" stroke="#ffffff" stroke-width="2" opacity="0.25"/><rect x="119.6" y="479.6" width="40.800000000000004" height="40.800000000000004" rx="16" fill="#ef4444" stroke="#ffffff" stroke-width="2" opacity="0.25"/><rect x="179.6" y="479.6" width="40.800000000000004" height="40.800000000000004" rx="16" fill="#ef4444" stroke="#ffffff" stroke-width="2" opacity="0.25"/><rect x="239.6" y="479.6" width="40.800000000000004" height="40.800000000000004" rx="16" fill="#ef4444" stroke="#ffffff" stroke-width="2" opacity="0.25"/><rect x="299.6" y="479.6" width="40.800000000000004" height="40.800000000000004" rx="16" fill="#ef4444" stroke="#ffffff" stroke-width="2" opacity="0.25"/></g>
  
<g>
  <circle cx="500.0" cy="500.0" r="66.0" fill="#0f172a" opacity="0.04"/>
  <circle cx="500.0" cy="500.0" r="51.0" fill="#0f172a" opacity="0.06"/>
  <circle cx="500.0" cy="500.0" r="33.0" fill="#111827" opacity="0.10"/>
</g>

  <g><circle id="track-0" cx="80.00" cy="440.00" r="1" opacity="0"/><circle id="track-1" cx="140.00" cy="440.00" r="1" opacity="0"/><circle id="track-2" cx="200.00" cy="440.00" r="1" opacity="0"/><circle id="track-3" cx="260.00" cy="440.00" r="1" opacity="0"/><circle id="track-4" cx="320.00" cy="440.00" r="1" opacity="0"/><circle id="track-5" cx="380.00" cy="440.00" r="1" opacity="0"/><circle id="track-6" cx="440.00" cy="380.00" r="1" opacity="0"/><circle id="track-7" cx="440.00" cy="320.00" r="1" opacity="0"/><circle id="track-8" cx="440.00" cy="260.00" r="1" opacity="0"/><circle id="track-9" cx="440.00" cy="200.00" r="1" opacity="0"/><circle id="track-10" cx="440.00" cy="140.00" r="1" opacity="0"/><circle id="track-11" cx="440.00" cy="80.00" r="1" opacity="0"/><circle id="track-12" cx="500.00" cy="80.00" r="1" opacity="0"/><circle id="track-13" cx="560.00" cy="80.00" r="1" opacity="0"/><circle id="track-14" cx="560.00" cy="140.00" r="1" opacity="0"/><circle id="track-15" cx="560.00" cy="200.00" r="1" opacity="0"/><circle id="track-16" cx="560.00" cy="260.00" r="1" opacity="0"/><circle id="track-17" cx="560.00" cy="320.00" r="1" opacity="0"/><circle id="track-18" cx="560.00" cy="380.00" r="1" opacity="0"/><circle id="track-19" cx="620.00" cy="440.00" r="1" opacity="0"/><circle id="track-20" cx="680.00" cy="440.00" r="1" opacity="0"/><circle id="track-21" cx="740.00" cy="440.00" r="1" opacity="0"/><circle id="track-22" cx="800.00" cy="440.00" r="1" opacity="0"/><circle id="track-23" cx="860.00" cy="440.00" r="1" opacity="0"/><circle id="track-24" cx="920.00" cy="440.00" r="1" opacity="0"/><circle id="track-25" cx="920.00" cy="500.00" r="1" opacity="0"/><circle id="track-26" cx="920.00" cy="560.00" r="1" opacity="0"/><circle id="track-27" cx="860.00" cy="560.00" r="1" opacity="0"/><circle id="track-28" cx="800.00" cy="560.00" r="1" opacity="0"/><circle id="track-29" cx="740.00" cy="560.00" r="1" opacity="0"/><circle id="track-30" cx="680.00" cy="560.00" r="1" opacity="0"/><circle id="track-31" cx="620.00" cy="560.00" r="1" opacity="0"/><circle id="track-32" cx="560.00" cy="620.00" r="1" opacity="0"/><circle id="track-33" cx="560.00" cy="680.00" r="1" opacity="0"/><circle id="track-34" cx="560.00" cy="740.00" r="1" opacity="0"/><circle id="track-35" cx="560.00" cy="800.00" r="1" opacity="0"/><circle id="track-36" cx="560.00" cy="860.00" r="1" opacity="0"/><circle id="track-37" cx="560.00" cy="920.00" r="1" opacity="0"/><circle id="track-38" cx="500.00" cy="920.00" r="1" opacity="0"/><circle id="track-39" cx="440.00" cy="920.00" r="1" opacity="0"/><circle id="track-40" cx="440.00" cy="860.00" r="1" opacity="0"/><circle id="track-41" cx="440.00" cy="800.00" r="1" opacity="0"/><circle id="track-42" cx="440.00" cy="740.00" r="1" opacity="0"/><circle id="track-43" cx="440.00" cy="680.00" r="1" opacity="0"/><circle id="track-44" cx="440.00" cy="620.00" r="1" opacity="0"/><circle id="track-45" cx="380.00" cy="560.00" r="1" opacity="0"/><circle id="track-46" cx="320.00" cy="560.00" r="1" opacity="0"/><circle id="track-47" cx="260.00" cy="560.00" r="1" opacity="0"/><circle id="track-48" cx="200.00" cy="560.00" r="1" opacity="0"/><circle id="track-49" cx="140.00" cy="560.00" r="1" opacity="0"/><circle id="track-50" cx="80.00" cy="560.00" r="1" opacity="0"/><circle id="track-51" cx="80.00" cy="500.00" r="1" opacity="0"/><circle id="home-red-0" cx="200.00" cy="200.00" r="1" opacity="0"/><circle id="home-red-1" cx="260.00" cy="200.00" r="1" opacity="0"/><circle id="home-red-2" cx="200.00" cy="260.00" r="1" opacity="0"/><circle id="home-red-3" cx="260.00" cy="260.00" r="1" opacity="0"/><circle id="home-blue-0" cx="740.00" cy="200.00" r="1" opacity="0"/><circle id="home-blue-1" cx="800.00" cy="200.00" r="1" opacity="0"/><circle id="home-blue-2" cx="740.00" cy="260.00" r="1" opacity="0"/><circle id="home-blue-3" cx="800.00" cy="260.00" r="1" opacity="0"/><circle id="home-green-0" cx="200.00" cy="740.00" r="1" opacity="0"/><circle id="home-green-1" cx="260.00" cy="740.00" r="1" opacity="0"/><circle id="home-green-2" cx="200.00" cy="800.00" r="1" opacity="0"/><circle id="home-green-3" cx="260.00" cy="800.00" r="1" opacity="0"/><circle id="home-yellow-0" cx="740.00" cy="740.00" r="1" opacity="0"/><circle id="home-yellow-1" cx="800.00" cy="740.00" r="1" opacity="0"/><circle id="home-yellow-2" cx="740.00" cy="800.00" r="1" opacity="0"/><circle id="home-yellow-3" cx="800.00" cy="800.00" r="1" opacity="0"/><circle id="lane-blue-0" cx="500.00" cy="140.00" r="1" opacity="0"/><circle id="lane-blue-1" cx="500.00" cy="200.00" r="1" opacity="0"/><circle id="lane-blue-2" cx="500.00" cy="260.00" r="1" opacity="0"/><circle id="lane-blue-3" cx="500.00" cy="320.00" r="1" opacity="0"/><circle id="lane-yellow-0" cx="860.00" cy="500.00" r="1" opacity="0"/><circle id="lane-yellow-1" cx="800.00" cy="500.00" r="1" opacity="0"/><circle id="lane-yellow-2" cx="740.00" cy="500.00" r="1" opacity="0"/><circle id="lane-yellow-3" cx="680.00" cy="500.00" r="1" opacity="0"/><circle id="lane-green-0" cx="500.00" cy="860.00" r="1" opacity="0"/><circle id="lane-green-1" cx="500.00" cy="800.00" r="1" opacity="0"/><circle id="lane-green-2" cx="500.00" cy="740.00" r="1" opacity="0"/><circle id="lane-green-3" cx="500.00" cy="680.00" r="1" opacity="0"/><circle id="lane-red-0" cx="140.00" cy="500.00" r="1" opacity="0"/><circle id="lane-red-1" cx="200.00" cy="500.00" r="1" opacity="0"/><circle id="lane-red-2" cx="260.00" cy="500.00" r="1" opacity="0"/><circle id="lane-red-3" cx="320.00" cy="500.00" r="1" opacity="0"/></g>
</svg>
